<?xml version="1.0" standalone="no"?>
<!DOCTYPE svg PUBLIC "-//W3C//DTD SVG 20010904//EN"
 "http://www.w3.org/TR/2001/REC-SVG-20010904/DTD/svg10.dtd">
<svg version="1.0" xmlns="http://www.w3.org/2000/svg"
 width="700.000000pt" height="700.000000pt" viewBox="0 0 700.000000 700.000000"
 preserveAspectRatio="xMidYMid meet">
<metadata>
Created by potrace 1.11, written by Peter Selinger 2001-2013
</metadata>
<g transform="translate(0.000000,700.000000) scale(0.100000,-0.100000)"
fill="#000000" stroke="none">
<path d="M3340 6634 c-1019 -60 -1917 -579 -2473 -1429 -266 -407 -432 -878
-488 -1385 -18 -162 -15 -525 5 -684 67 -518 223 -944 500 -1366 120 -182 230
-315 400 -486 164 -164 295 -273 475 -393 1010 -676 2322 -706 3365 -76 483
291 896 732 1160 1237 680 1302 358 2910 -774 3855 -552 462 -1211 708 -1940
726 -91 3 -194 3 -230 1z m395 -444 c355 -33 642 -114 960 -270 712 -350 1230
-991 1426 -1763 60 -236 73 -354 73 -652 1 -302 -10 -403 -70 -645 -49 -200
-105 -355 -198 -546 -137 -279 -305 -513 -522 -729 -308 -306 -678 -530 -1094
-663 -416 -133 -904 -159 -1338 -72 -1080 217 -1930 1078 -2126 2154 -83 454
-51 923 93 1354 259 772 871 1401 1639 1681 201 74 500 138 712 154 105 8 343
6 445 -3z"/>
<path d="M1537 3706 c-90 -33 -147 -112 -147 -206 0 -94 57 -173 147 -206 31
-11 204 -13 890 -14 l853 0 2 -867 c3 -955 -1 -891 64 -957 47 -46 83 -60 154
-60 71 0 107 14 154 60 65 66 61 -11 64 1078 3 1103 6 1049 -66 1119 -72 70
-16 67 -1101 67 -789 -1 -983 -3 -1014 -14z"/>
</g>
</svg>
